# xmcd
#
# Track frame offsets:
#	150
#	15182
#	28269
#	38894
#	51865
#	64453
#	74192
#	85715
#	97769
#	107417
#	119815
#	132104
#	145260
#	158095
#	171197
#	183201
#	194826
#	207011
#	218866
#	231684
#	244604
#	253112
#	262995
#	277020
#	287105
#
# Disc length: 4008 seconds
#
# Revision: 1
# Processed by: cddbd v1.5.1PL2 Copyright (c) Steve Scherf et al.
# Submitted via: audiograbber 1.82.02
#
DISCID=7d0fa619
DTITLE=The Stewart Family - Come On In And Make Yourself At Home
DYEAR=1900
DGENRE=Country
TTITLE0=Journey's End
TTITLE1=The Green Grass Grows All Around
TTITLE2=Posted, One Heart
TTITLE3=Four O'Clock In The Morning
TTITLE4=Whiskey Widder
TTITLE5=I Can't, He Can
TTITLE6=I Don't Have To Tell You That I Love You
TTITLE7=I Ain't Got Time
TTITLE8=Just Out Of Reach
TTITLE9=Lonesome Dollar Bill
TTITLE10=22 Boogie 
TTITLE11=Wasted Tears
TTITLE12=Shadows
TTITLE13=Jealous Love
TTITLE14=Don't Go Honky Tonkin'
TTITLE15=Sugar Plum Boogie
TTITLE16=Love Or The Itch
TTITLE17=Mysteries Of Life
TTITLE18=I've Changed My Mind
TTITLE19=Brown Eyes Or Blue Eyes
TTITLE20=Come On In And Make Yourself At Home
TTITLE21=Goin Steady
TTITLE22=Beautiful Garden of Prayer
TTITLE23=Sinner Read The Bible
TTITLE24=Thirty Pieces of Silver
EXTD=
EXTT0=
EXTT1=
EXTT2=
EXTT3=
EXTT4=
EXTT5=
EXTT6=
EXTT7=
EXTT8=
EXTT9=
EXTT10=
EXTT11=
EXTT12=
EXTT13=
EXTT14=
EXTT15=
EXTT16=
EXTT17=
EXTT18=
EXTT19=
EXTT20=
EXTT21=
EXTT22=
EXTT23=
EXTT24=
PLAYORDER=
